<svg viewBox="0 0 19 21" id="image-serv" xmlns="http://www.w3.org/2000/svg" xmlns:xlink="http://www.w3.org/1999/xlink">
<path d="M1.484.5h16.032c.28.032.515.14.703.328a.954.953 0 01.28.701v3.98a.953.952 0 01-.28.701.954.953 0 01-.703.28H1.484a.953.952 0 01-.703-.28.953.952 0 01-.28-.702V1.53c0-.28.093-.514.28-.702.19-.186.422-.295.703-.327zm0 7.004h16.032c.28 0 .515.094.703.282a.954.953 0 01.28.702v4.024a.954.953 0 01-.28.702.954.953 0 01-.703.282H1.484a.953.952 0 01-.703-.282.953.952 0 01-.28-.702V8.488c0-.281.093-.516.28-.702a.953.952 0 01.703-.282zm0 7.005h16.032c.28 0 .515.094.703.28a.955.954 0 01.28.704v3.978a.954.953 0 01-.28.701 1.143 1.141 0 01-.703.328H1.484a1.142 1.14 0 01-.703-.328.954.953 0 01-.28-.701v-3.978c0-.282.093-.515.28-.703a.954.953 0 01.703-.28zM6.5 4.525h.984V2.513H6.5zm0 6.958h.984V9.517H6.5zm0 7.005h.984v-2.013H6.5zM2.516 2.513v2.012h1.968V2.513zm0 7.004v1.966h1.968V9.517zm0 6.958v2.013h1.968v-2.013z" fill="#0079af"/>
</svg>