<svg viewBox="0 0 15 21" id="image-calc-b" xmlns="http://www.w3.org/2000/svg" xmlns:xlink="http://www.w3.org/1999/xlink">
<path d="M2.473.5h10.055c.563 0 1.032.188 1.409.564.376.375.563.844.563 1.408v16.056c0 .564-.187 1.033-.563 1.41-.376.375-.846.562-1.41.562H2.473c-.564 0-1.033-.187-1.41-.563-.376-.376-.563-.845-.563-1.41V2.473c0-.565.187-1.033.563-1.408C1.44.688 1.91.5 2.473.5zm0 1.972V6.51h10.055V2.472zm0 6.01V10.5h2.02V8.48zm4.04 0V10.5h1.973V8.48zm3.994 0V10.5h2.02V8.48zm-8.034 4.037v1.973h2.02v-1.973zm4.04 0v1.973h1.973v-1.973zm3.994 0v1.973h2.02v-1.973zm-8.034 3.99v2.019h2.02V16.51zm4.04 0v2.019h1.973V16.51zm3.994 0v2.019h2.02V16.51z" fill="#0079af"/>
</svg>