<svg
  viewBox="0 0 22 24"
  width="22px"
  height="24px"
  id="image-filter"
  xmlns="http://www.w3.org/2000/svg"
  xmlns:xlink="http://www.w3.org/1999/xlink"
>
 <defs>
 <path
      fill="#fff"
      id="aya"
      d="M354.688 96l7.687-9.813c.25-.333.344-.677.281-1.03a1.316 1.316 0 00-.5-.845c-.271-.208-.553-.312-.844-.312h-18.625c-.291 0-.573.104-.843.312a1.31 1.31 0 00-.5.844c-.063.354.031.698.281 1.031L349.312 96v7.812c-.041.417.104.792.438 1.125l2.625 2.688c.291.25.614.375.969.375.353 0 .677-.146.969-.438.29-.29.416-.645.375-1.062V96z"
    />
 </defs>
<use xlink:href="#aya" transform="translate(-341 -84)" />
</svg>
