<svg viewBox="0 0 71 60" id="image-l-calc" xmlns="http://www.w3.org/2000/svg" xmlns:xlink="http://www.w3.org/1999/xlink">
<path d="M70.5 50.9a5.74 5.753 0 01-5.734 5.746H38.882c.452-.484.705-1.032.705-1.647v-.357h25.18a3.738 3.747 0 003.733-3.743V6.263a3.738 3.747 0 00-3.734-3.74H36.23a3.738 3.747 0 00-3.733 3.74v17.6c-.65-.1-1.32-.18-2-.24V6.263A5.74 5.753 0 0136.228.518h28.537A5.74 5.753 0 0170.5 6.263zM35.496 5.53h30.003v13.03H35.496zm2 11.025H63.5v-9.02H37.496zm-1 4.009h8.001v7.016H39.55c-.218-1.155-1.374-2.052-3.054-2.708zm2 5.011h4V22.57h-4zm8.001-5.011h8.001v7.016h-8zm2 5.011h4V22.57h-4zm8.001-5.011H64.5v7.016h-8zm2 5.011H62.5V22.57h-4zm-14.001 3.007v7.016h-4.91v-2.004h2.91v-3.007h-2.91v-2.005zm2 0h8.001v7.016h-8zm2 5.012h4v-3.007h-4zm8.001-5.012H64.5v7.016h-8zm2 5.012H62.5v-3.007h-4zM44.498 36.6v7.016h-4.91v-2.005h2.91v-3.007h-2.91v-2.004zm2 0h8.001v7.016h-8zm2 5.011h4v-3.007h-4zm-4 4.01v7.015h-4.91v-2.004h2.91v-3.007h-2.91V45.62zm2 0h8.001v7.015h-8zm2 5.01h4v-3.006h-4zm8.001-14.031H64.5v16.036h-8zm2 14.032H62.5V38.605h-4zM48.42 9.155c.05.122.077.252.077.383v5.011a1 1.002 0 11-2 0v-3.007a1 1.002 0 01-.707-1.71l1-1.002a1.006 1.008 0 011.09-.217c.244.1.44.296.54.542zm9.002 0c.05.122.077.252.077.383v5.011a1 1.002 0 11-2 0v-3.007a1 1.002 0 01-.708-1.71l1-1.002a1.006 1.008 0 011.09-.217c.244.1.44.296.54.542zm4 0c.05.122.077.252.077.383v5.011a1 1.002 0 11-2 0v-3.007a1 1.002 0 01-.707-1.71l.999-1.002a1.005 1.007 0 011.09-.217c.245.1.44.296.54.542zm-8.217 3.683a1 1.001 0 010 1.417l-1 1.003a1 1.001 0 01-1.414 0 1 1.002 0 010-1.417l1-1.003a1 1.001 0 011.414 0z" fill="#d7dde3" opacity=".9"/>
<path d="M39.587 27.983v27.015c0 3.093-6.4 4.502-12.35 4.502-5.952 0-12.352-1.41-12.352-4.502V27.983c0-3.093 6.4-4.502 12.351-4.502 5.95 0 12.351 1.409 12.351 4.502zm-2.245 25.244c-2.388 1.202-6.337 1.77-10.106 1.77-3.77 0-7.717-.563-10.106-1.768v1.769c.17.608 3.537 2.25 10.106 2.25s9.936-1.643 10.106-2.267zm0-4.503c-2.388 1.203-6.337 1.771-10.106 1.771-3.77 0-7.717-.563-10.106-1.77v1.77c.17.608 3.537 2.252 10.106 2.252s9.936-1.644 10.106-2.269zm0-4.502c-2.388 1.203-6.337 1.77-10.106 1.77-3.77 0-7.717-.561-10.106-1.769v1.77c.17.607 3.537 2.25 10.106 2.25s9.936-1.644 10.106-2.267zm0-4.502c-2.388 1.202-6.337 1.77-10.106 1.77-3.77 0-7.717-.562-10.106-1.77v1.77c.17.608 3.537 2.252 10.106 2.252s9.936-1.644 10.106-2.268zm0-4.503c-2.388 1.202-6.337 1.77-10.106 1.77-3.77 0-7.717-.568-10.106-1.769v1.77c.17.608 3.537 2.252 10.106 2.252s9.936-1.644 10.106-2.27zm0-4.503c-2.388 1.203-6.337 1.771-10.106 1.771-3.77 0-7.717-.568-10.106-1.769v1.77c.17.607 3.537 2.25 10.106 2.25s9.936-1.643 10.106-2.268zm0-2.731c-.225-.638-3.593-2.251-10.106-2.251-6.559 0-9.925 1.637-10.106 2.265v.006c.18.591 3.547 2.231 10.106 2.231 6.513 0 9.881-1.614 10.106-2.251zM21.48 11.034c0 5.815-4.696 10.532-10.49 10.532C5.2 21.56.506 16.847.5 11.032.5 5.216 5.197.5 10.991.5c5.793 0 10.49 4.716 10.49 10.532zm-1.907 0c0-4.76-3.842-8.618-8.583-8.618-4.737.004-8.578 3.86-8.583 8.617 0 4.76 3.843 8.618 8.583 8.618s8.583-3.859 8.583-8.618zM7.238 10.68h1.185V5.734a14.286 14.317 0 012.73-.256c.52 0 1.02.045 1.5.136.48.09.9.255 1.26.496.36.24.648.571.863.992.215.421.323.962.323 1.624 0 .611-.105 1.127-.315 1.548-.21.421-.49.765-.84 1.03-.35.266-.75.457-1.2.572-.45.115-.92.172-1.41.172h-1.02v.872h2.4v1.369h-2.4v1.864H8.422v-1.864H7.238V12.92h1.185v-.872H7.238zm3.075-.045h.78c.27 0 .527-.032.772-.097s.458-.168.638-.309c.18-.14.322-.327.427-.563a2.08 2.08 0 00.158-.85c0-.611-.165-1.044-.495-1.3-.33-.256-.755-.384-1.275-.384a6.733 6.747 0 00-1.005.075z" fill="#ff9000" opacity=".9"/>
</svg>