<svg viewBox="0 0 75 82" id="image-data-wrench" xmlns="http://www.w3.org/2000/svg" xmlns:xlink="http://www.w3.org/1999/xlink">
<path d="M59.415 29.508a1.001 1.002 0 01-1.002-1c0-.552.448-1 1.002-1a5.005 5.005 0 005.012-4.998c0-2.76-2.244-5-5.012-5a5.155 5.16 0 00-2.963.938 1.007 1.008 0 01-.844.144.999 1 0 01-.698-1.231c.286-1.009.433-2.051.437-3.1-.106-5.257-6.63-9.833-11.698-11.285-6.381-1.83-16.04 1.848-17.873 8.214a1.004 1.005 0 01-1.625.487 6.708 6.715 0 00-4.395-1.664c-3.633-.032-6.606 2.875-6.646 6.498.005.822.17 1.635.484 2.394.18.443.02.95-.38 1.211a1.005 1.006 0 01-1.388-.288 5.015 5.02 0 00-4.146-2.316c-2.768-.044-5.048 2.157-5.093 4.917a5.005 5.005 0 004.93 5.08 1 1 0 110 2c-3.876 0-7.017-3.134-7.017-7 0-3.864 3.142-6.997 7.017-6.997a7.179 7.186 0 013.591.956 8.583 8.592 0 011.296-4.378c2.514-4.046 7.841-5.291 11.897-2.783C26.396 4.068 34.44.597 40.094.502c7.749-.13 17.133 6.03 17.264 13.76 0 .528-.034 1.056-.1 1.58a7.152 7.159 0 012.156-.33c3.875 0 7.016 3.133 7.016 6.998s-3.141 6.998-7.016 6.998zM15.23 44.505a1.001 1.002 0 01-1.003-1c0-.552.45-1 1.002-1h25.039c.554 0 1.003.448 1.003 1s-.45 1-1.003 1zm28.561 0a1.001 1.002 0 01-1.002-1c0-.552.45-1 1.002-1h2.667a1.001 1.001 0 110 2zm-30.365-5.999h40.075c1.009 0 1.898.501 2.444 1.263a12.9 12.9 0 00-1.74 1.027 1 1.001 0 00-.704-.29H13.426a1 1 0 00-1.002 1v4a1 1 0 001.002.998h36.273c-.259.65-.46 1.319-.61 2H13.427a3.002 3.005 0 01-3.007-2.999v-4a3.003 3.003 0 013.007-2.999zm1.803 17.996a1.001 1.002 0 01-1.002-1c0-.552.45-1 1.002-1h25.039c.554 0 1.003.448 1.003 1 0 .553-.45 1-1.003 1zm-1.804-5.998H48.82c-.04.664-.024 1.33.04 1.999H13.425c-.554 0-1.002.448-1.002 1v4a1 1 0 001.002.999h32.74l-1.997 1.999H13.427a3.002 3.005 0 01-3.008-2.999v-3.999c0-1.657 1.345-3 3.007-3zm30.366 5.998a1.001 1.002 0 01-1.002-1c0-.552.45-1 1.002-1h2.667a1.001 1.001 0 110 2zm4.997-12.997a1.938 1.94 0 011.93-1.937 1.943 1.945 0 011.617.844 12.759 12.772 0 00-2.105 2.955 1.941 1.943 0 01-1.442-1.862zm1.955.063v-.125l-.05.062c0 .03.02.063.05.063z" fill="#d7dde3"/>
<path d="M56.508 29.509v3.999a3.002 3.005 0 01-3.007 2.999H13.426a3.002 3.005 0 01-3.007-3v-3.998c0-1.657 1.345-3 3.007-3H53.5a3.002 3.005 0 013.007 3zm-2.005 0c0-.553-.45-1-1.002-1H13.426a1 1 0 00-1.002 1v3.999c0 .551.448 1 1.002 1H53.5c.553 0 1.002-.449 1.002-1zm-2.466 3.172a1.936 1.938 0 01-1.598.827 1.96 1.96 0 01-1.929-1.61 1.906 1.908 0 01.323-1.444 1.962 1.964 0 011.248-.793 1.959 1.961 0 012.278 1.574 1.899 1.901 0 01-.322 1.446zm-1.6-1.048l-.005-.125-.045.08c.002.02.005.045.05.045zm-9.366-.125c0 .552-.45 1-1.002 1h-25.04a1.001 1.002 0 01-1.002-1c0-.552.45-1 1.002-1h25.04c.553 0 1.002.448 1.002 1zm5.75 0c0 .552-.45 1-1.003 1h-2.666a1.001 1.002 0 01-1.002-1c0-.552.45-1 1.002-1h2.667c.553 0 1.002.448 1.002 1zM29.159 18.193a1.005 1.006 0 01-1.416.025l-1.297-1.292v6.584c0 .552-.449 1-1.002 1a1.001 1.002 0 01-1.003-1v-6.584l-1.296 1.292a1.005 1.006 0 01-1.392 0 .997.998 0 01-.025-1.414l3.007-3a1.005 1.006 0 011.418 0l3.007 3a.996.997 0 010 1.39zm16.04 3.024l-3.007 3c-.393.39-1.027.39-1.419 0l-3.007-3a.996.997 0 010-1.389 1.005 1.006 0 011.418-.024l1.295 1.292v-6.584a1.002 1.002 0 012.005 0v6.584l1.297-1.292a1.005 1.006 0 011.393 0 .996.997 0 01.024 1.413zm1.393 36.858l2.807-2.81c-1.481-4.592-.292-9.651 3.132-13.079 3.606-3.61 9.022-4.739 13.796-2.875a1.17 1.172 0 01.402 1.92l-5.577 5.584v4.972h4.967l5.577-5.585a1.169 1.17 0 011.918.403c1.862 4.779.735 10.2-2.872 13.81a12.867 12.867 0 01-13.065 3.135l-2.808 2.811-5.98 5.985-7.43 7.438a5.81 5.816 0 01-4.138 1.716 5.811 5.817 0 01-4.139-1.717 5.812 5.818 0 01-1.714-4.141c0-1.565.61-3.036 1.715-4.143l7.43-7.437zM34.838 73.157a3.487 3.491 0 00-1.029 2.485 3.486 3.49 0 001.03 2.485 3.486 3.49 0 002.483 1.03c.938 0 1.819-.365 2.482-1.029l16.74-16.756a1.172 1.173 0 011.253-.263c3.908 1.526 8.34.604 11.289-2.35a10.53 10.54 0 002.87-9.502l-4.525 4.53a1.17 1.17 0 01-.828.344h-6.622a1.17 1.172 0 01-1.17-1.172v-6.63c0-.31.123-.608.343-.828l4.525-4.53a10.566 10.577 0 00-2.055-.202 10.51 10.52 0 00-7.437 3.075c-2.95 2.953-3.87 7.39-2.347 11.301.17.434.067.926-.262 1.255zm20.034-15.085c.458.458.458 1.2 0 1.658L41.474 73.142a1.167 1.168 0 01-1.655 0 1.17 1.172 0 010-1.658l13.398-13.412a1.17 1.172 0 011.655 0zM37.338 76.798a1.17 1.172 0 110-2.344 1.17 1.172 0 010 2.344z" fill="#ff9000"/>
</svg>