<svg viewBox="0 0 18 18" id="image-info" xmlns="http://www.w3.org/2000/svg" xmlns:xlink="http://www.w3.org/1999/xlink">
<path d="M8.162 11.556h1.676v1.716H8.162zm0-6.825h1.676v5.108H8.162zm6.864-1.757c1.596 1.596 2.42 3.606 2.474 6.025-.053 2.422-.879 4.43-2.474 6.028C13.43 16.622 11.42 17.447 9 17.5c-2.421-.053-4.43-.878-6.027-2.473C1.378 13.43.553 11.421.5 9c.053-2.393.878-4.396 2.473-6.005C4.57 1.384 6.58.554 9 .5c2.421.054 4.43.879 6.026 2.475zm-1.197 10.855c1.277-1.277 1.941-2.886 1.996-4.83-.055-1.94-.719-3.55-1.996-4.828C12.552 2.894 10.941 2.231 9 2.177c-1.942.054-3.552.718-4.83 1.995-1.276 1.277-1.94 2.888-1.995 4.83.054 1.943.719 3.552 1.996 4.83 1.277 1.275 2.888 1.94 4.829 1.994 1.941-.054 3.551-.719 4.83-1.996z" fill="#aeb3ba"/>
</svg>