<svg viewBox="0 0 21 21" id="image-check" xmlns="http://www.w3.org/2000/svg" xmlns:xlink="http://www.w3.org/1999/xlink">
<path d="M20.5 10.5c-.063 2.849-1.032 5.212-2.91 7.09-1.879 1.877-4.242 2.847-7.09 2.91-2.849-.063-5.211-1.033-7.09-2.91C1.534 15.711.563 13.348.5 10.5c.062-2.848 1.032-5.212 2.91-7.09C5.29 1.534 7.652.564 10.5.5c1.345 0 2.597.234 3.756.704l-1.55 1.597a7.546 7.546 0 00-2.206-.329c-2.286.063-4.179.845-5.681 2.348C3.317 6.322 2.534 8.216 2.47 10.5c.063 2.285.846 4.178 2.348 5.68 1.502 1.503 3.395 2.286 5.681 2.348 2.284-.062 4.179-.845 5.681-2.348 1.502-1.502 2.284-3.395 2.348-5.68zM9.514 11.674l8.592-8.591 1.408 1.408-10 10-4.507-4.506 1.408-1.408z" fill="#21c207"/>
</svg>