<svg viewBox="0 0 89 45" id="image-advance" xmlns="http://www.w3.org/2000/svg" xmlns:xlink="http://www.w3.org/1999/xlink">
<defs>
<path id="aba" d="M578.497 1024a10.53 10.53 0 01-2.521-.308c-.796.194-1.623.308-2.479.308a10.515 10.515 0 01-2.52-.308c-.797.194-1.624.308-2.48.308-5.79-.006-10.483-4.708-10.489-10.509 0-5.803 4.696-10.508 10.489-10.508.854 0 1.68.113 2.475.307a10.5 10.5 0 012.525-.307c.854 0 1.68.113 2.474.307.81-.2 1.655-.307 2.526-.307 5.628 0 10.22 4.44 10.478 10.014h5.6l-1.292-1.297a1.006 1.006 0 010-1.394.997.997 0 011.414-.025l3 3.01c.39.392.39 1.028 0 1.42l-3 3.01a.997.997 0 01-1.39 0 1.006 1.006 0 01-.024-1.42l1.293-1.297h-5.698c-.732 5.087-5.1 8.996-10.38 8.996zm-15.49-10.509c0-3.5 1.709-6.6 4.335-8.51a8.597 8.597 0 00-7.427 8.51 8.589 8.589 0 007.439 8.514 10.511 10.511 0 01-4.346-8.514zm5.001 0c0-3.5 1.708-6.6 4.335-8.51a8.597 8.597 0 00-7.428 8.51c0 4.36 3.24 7.952 7.439 8.514a10.511 10.511 0 01-4.346-8.513zm19.071 0c0-4.748-3.842-8.597-8.582-8.597-4.737.005-8.577 3.851-8.582 8.598 0 4.748 3.842 8.597 8.582 8.597 4.464 0 8.131-3.414 8.544-7.777a1.006 1.006 0 01.038-.72v-.1zm-12.334-.352h1.185v-4.934a14.327 14.327 0 012.73-.255c.52 0 1.02.044 1.5.135.48.09.9.254 1.26.495.36.24.647.57.862.99.215.42.323.96.323 1.62 0 .61-.105 1.125-.315 1.545-.21.42-.49.762-.84 1.027a3.33 3.33 0 01-1.2.57c-.45.115-.92.172-1.41.172h-1.02v.87h2.4v1.366h-2.4v1.86h-1.89v-1.86h-1.185v-1.365h1.185v-.87h-1.185zm3.075-.044h.78c.27 0 .527-.033.772-.098s.458-.167.638-.308c.18-.14.322-.327.427-.562.105-.235.158-.517.158-.847 0-.61-.165-1.043-.495-1.298-.33-.255-.755-.382-1.275-.382-.2 0-.39.007-.57.022a4.84 4.84 0 00-.435.052zm69.246-2.088v5.999c0 1.656-1.348 3-3.01 3h-40.117a3.005 3.005 0 01-3.01-3v-6a3.003 3.003 0 013.01-2.998h40.117a3.005 3.005 0 013.01 2.999zm-2.007 0c0-.552-.45-1-1.003-1h-40.117c-.554 0-1.003.448-1.003 1v5.999c0 .552.449 1 1.003 1h40.117c.554 0 1.003-.448 1.003-1zm-2.468 4.172a1.939 1.939 0 01-1.6.827 1.962 1.962 0 01-1.931-1.609 1.908 1.908 0 01.323-1.444 1.963 1.963 0 011.25-.794 1.961 1.961 0 012.28 1.574 1.9 1.9 0 01-.322 1.446zm-1.602-1.048l-.005-.125-.045.08c.002.02.005.045.05.045zm-9.376-.125c0 .553-.45 1-1.003 1h-25.065a1.002 1.002 0 01-1.004-1c0-.552.45-1 1.004-1h25.065c.554 0 1.003.448 1.003 1zm5.756 0c0 .553-.45 1-1.004 1h-2.669a1.002 1.002 0 01-1.003-1c0-.552.45-1 1.003-1h2.67c.554 0 1.003.448 1.003 1z"/>
<path id="abb" d="M647.066 1025.004v6a3.004 3.004 0 01-3.01 2.998h-40.117a3.005 3.005 0 01-3.01-2.999v-5.999c0-1.656 1.347-3 3.01-3h40.117a3.005 3.005 0 013.01 3zm-2.007 0c0-.552-.45-1-1.003-1h-40.117c-.554 0-1.003.448-1.003 1v6c0 .551.449.999 1.003.999h40.117c.554 0 1.003-.448 1.003-1zm-1.83 2.988a1.941 1.941 0 01-1.933 1.95 1.95 1.95 0 01-1.956-1.939 1.94 1.94 0 011.932-1.937 1.941 1.941 0 011.957 1.926zm-1.933-.05l-.05.062c0 .03.02.063.05.063zm-9.482.062c0 .552-.45 1-1.004 1h-25.065a1.002 1.002 0 01-1.003-1c0-.552.45-1 1.003-1h25.065c.555 0 1.004.448 1.004 1zm6.196 0c0 .552-.45 1-1.003 1h-2.67a1.002 1.002 0 01-1.003-1c0-.552.45-1 1.004-1h2.669c.554 0 1.003.448 1.003 1zm9.056 10.997v6a3.005 3.005 0 01-3.01 2.999h-40.117a3.005 3.005 0 01-3.01-3v-5.999a3.004 3.004 0 013.01-2.999h40.117a3.005 3.005 0 013.01 3zm-2.007 0c0-.552-.45-1-1.003-1h-40.117c-.554 0-1.003.448-1.003 1v6c0 .552.449 1 1.003 1h40.117c.554 0 1.003-.448 1.003-1zm-1.83 2.988a1.941 1.941 0 01-1.933 1.95 1.95 1.95 0 01-1.956-1.938c0-1.066.863-1.931 1.932-1.938a1.941 1.941 0 011.957 1.926zm-1.933-.05l-.05.062c0 .03.02.063.05.063zm-9.482.062c0 .552-.45 1-1.004 1h-25.065a1.002 1.002 0 01-1.003-1c0-.552.45-1 1.003-1h25.065c.555 0 1.004.448 1.004 1zm6.196 0c0 .552-.45 1-1.003 1h-2.67a1.002 1.002 0 01-1.003-1c0-.552.45-1 1.004-1h2.669c.554 0 1.003.448 1.003 1z"/>
</defs>
<use fill="#ff9000" xlink:href="#aba" transform="translate(-558 -1003)"/>
<use fill="#d7dde3" xlink:href="#abb" transform="translate(-558 -1003)"/>
</svg>