<svg
  viewBox="0 0 64 64"
  id="image-calc"
  xmlns="http://www.w3.org/2000/svg"
  xmlns:xlink="http://www.w3.org/1999/xlink"
>
<defs>
<path
      id="aha"
      d="M1186.167 1003.324h3.638v-2.972a2.974 2.974 0 00-2.98-2.971h-.002a2.975 2.975 0 00-2.791 1.926c.656.415-2.002-.692-1.787-.66a4.875 4.875 0 014.576-3.165l.002-.002h10.531V983.9h-21.383v12.527a.95.95 0 01-.953.95.952.952 0 01-.953-.95V982.95a.95.95 0 01.953-.95h23.29c.526 0 .953.425.953.95v12.53h10.85a4.877 4.877 0 014.889 4.872v22.937a.953.953 0 01-.954.951.952.952 0 01-.953-.95v-22.938c0-.794-.31-1.541-.873-2.104a2.976 2.976 0 00-2.108-.867H1190.7a4.833 4.833 0 011.012 2.971v39.853h21.38v-17.498c0-.525.428-.95.955-.95.526 0 .953.425.953.95v18.449c0 .524-.427.95-.953.95h-23.289a.952.952 0 01-.953-.95v-35.932h-3.638v-1.9zm0 0v-.16.16zm11.809-2.082c0 .525-.428.95-.954.95h-2.542a.952.952 0 01-.954-.95c0-.525.427-.95.954-.95h2.542c.526 0 .954.425.954.95zm13.348 0a.95.95 0 01-.953.95h-10.043a.952.952 0 01-.954-.95c0-.525.427-.95.954-.95h10.043a.95.95 0 01.953.95zm-13.348 16.06c0 .525-.428.95-.954.95h-2.542a.952.952 0 01-.954-.95c0-.524.427-.95.954-.95h2.542c.526 0 .954.426.954.95zm13.348 0a.95.95 0 01-.953.95h-10.043a.952.952 0 01-.954-.95c0-.524.427-.95.954-.95h10.043c.527 0 .953.426.953.95zm-13.348-5.353c0 .525-.428.95-.954.95h-2.542a.952.952 0 01-.954-.95c0-.525.427-.95.954-.95h2.542c.526 0 .954.425.954.95zm13.348 0a.95.95 0 01-.953.95h-10.043a.952.952 0 01-.954-.95c0-.525.427-.95.954-.95h10.043a.95.95 0 01.953.95zm-13.348-5.353c0 .524-.428.95-.954.95h-2.542a.952.952 0 01-.954-.95c0-.525.427-.95.954-.95h2.542c.526 0 .954.425.954.95zm13.348 0c0 .524-.426.95-.953.95h-10.043a.952.952 0 01-.954-.95c0-.525.427-.95.954-.95h10.043a.95.95 0 01.953.95zm-33.563-19.215c0-.525.427-.95.954-.95h2.543c.526 0 .953.425.953.95 0 .525-.427.95-.953.95h-2.543a.952.952 0 01-.953-.95zm5.849 0c0-.525.427-.95.953-.95h10.044c.526 0 .953.425.953.95 0 .525-.427.95-.953.95h-10.044a.952.952 0 01-.953-.95zm-5.848 5.354a.95.95 0 01.953-.95h2.543c.526 0 .953.425.953.95 0 .525-.427.95-.953.95h-2.543a.952.952 0 01-.953-.95zm5.848 0c0-.525.427-.95.953-.95h10.044a.952.952 0 110 1.9h-10.044a.952.952 0 01-.953-.95z"
    />
<path
      id="ahb"
      d="M1184.032 999.307c.618.462 2.072 1.736 2.135 3.858v38.269c0 2.517-2.055 4.566-4.582 4.566h-26.003c-2.527 0-4.582-2.049-4.582-4.567v-38.268c0-2.518 2.055-4.567 4.582-4.567h6.982a.95.95 0 110 1.9h-6.982a2.674 2.674 0 00-2.675 2.667v38.268c0 1.47 1.2 2.666 2.675 2.666h26.003a2.673 2.673 0 002.675-2.666v-38.268c0-1.47-1.2-2.666-2.675-2.666h-20.86a.952.952 0 01-.952-.95.95.95 0 01.953-.95h20.86c1.004 0 1.632.1 2.446.708zm-1.679 13.443c0 .525-.427.95-.953.95h-25.633a.952.952 0 01-.953-.95v-9.4c0-.525.427-.95.953-.95h25.633c.526 0 .953.425.953.95zm-1.907-8.45h-23.725v7.5h23.725zm1.907 12.456v24.595c0 .525-.427.95-.953.95h-25.633a.952.952 0 01-.953-.95v-24.595c0-.525.427-.95.953-.95h25.633c.526 0 .953.425.953.95zm-1.907.95h-6.459v6.505h6.46zm0 8.406h-6.459v5.883h6.46zm-23.725 5.883h6.458v-5.883h-6.458zm8.365 0h6.995v-5.883h-6.995zm0-14.289v6.505h6.995v-6.505zm-8.365 0v6.505h6.458v-6.505zm0 22.695h6.458v-6.505h-6.458zm15.36 0v-6.505h-6.995v6.505zm8.365 0v-6.505h-6.458v6.505zm-5.036-30.67c0-.524.427-.95.953-.95h2.034c.527 0 .954.426.954.95 0 .525-.427.95-.954.95h-2.034a.952.952 0 01-.953-.95zm28.136 21.644h-2.87v.958h2.87c.269 0 .495.095.68.284.184.19.276.416.276.68a.917.917 0 01-.276.674.924.924 0 01-.68.276h-2.87v1.915a.92.92 0 01-.277.68.915.915 0 01-.672.278.914.914 0 01-.673-.277.925.925 0 01-.276-.68v-1.916h-.957a.924.924 0 01-.68-.276.916.916 0 01-.277-.674.94.94 0 01.277-.68.912.912 0 01.68-.284h.957v-.958h-.957a.923.923 0 01-.68-.276.916.916 0 01-.277-.674.94.94 0 01.277-.68.912.912 0 01.68-.285h.957v-6.701c0-.26.092-.484.276-.674a.895.895 0 01.665-.284h3.827a4.7 4.7 0 012.406.644 4.712 4.712 0 011.742 1.742c.423.733.635 1.534.635 2.401a4.72 4.72 0 01-.635 2.401 4.71 4.71 0 01-1.742 1.743 4.702 4.702 0 01-2.406.643zm0-7.659h-2.87v5.744h2.87c.797 0 1.474-.281 2.033-.845a2.787 2.787 0 00.837-2.034c0-.793-.28-1.469-.837-2.027a2.767 2.767 0 00-2.033-.838z"
    />
</defs>
<use fill="#dadfe5" xlink:href="#aha" transform="translate(-1151 -982)" />
<use fill="#ff9000" xlink:href="#ahb" transform="translate(-1151 -982)" />
</svg>
