<svg
  viewBox="0 0 60 60"
  id="image-quick"
  xmlns="http://www.w3.org/2000/svg"
  xmlns:xlink="http://www.w3.org/1999/xlink"
>
<defs>
<path
      id="bra"
      d="M1438 1020.005c0-16.545 13.458-30.005 30-30.005a29.814 29.814 0 0118.999 6.811v-5.81a1 1 0 112 0v9h-.891a.954.954 0 01-.193 0H1480a1 1 0 110-2h5.302a27.836 27.836 0 00-17.302-6c-15.44 0-28 12.562-28 28.004a1 1 0 11-2 0zm34-1c0 2.206-1.794 4-4 4-.74 0-1.424-.215-2.02-.567l-8.273 8.275a.997.997 0 01-1.414 0 .999.999 0 010-1.414l8.274-8.275a3.949 3.949 0 01-.567-2.02c0-1.859 1.28-3.41 3-3.858v-5.143a1 1 0 112 0v5.143c1.72.447 3 2 3 3.859zm-2 0c0-1.104-.897-2-2-2s-2 .896-2 2c0 1.103.897 2 2 2s2-.897 2-2z"
    />
<path
      id="brb"
      d="M1490 1020.005c0 12.133-9.869 22.003-22 22.003s-22-9.87-22-22.003c0-12.133 9.869-22.004 22-22.004s22 9.87 22 22.004zm-2 0c0-11.03-8.972-20.003-20-20.003s-20 8.973-20 20.003 8.972 20.003 20 20.003 20-8.973 20-20.003zm-21-16.003v-2a1 1 0 112 0v2a1 1 0 11-2 0zm2 32.005v2a1 1 0 11-2 0v-2a1 1 0 112 0zm14-16.002a1 1 0 011-1h2a1 1 0 110 2h-2a1 1 0 01-1-1zm-30 0a1 1 0 01-1 1h-2a1 1 0 110-2h2a1 1 0 011 1zm-1.711 22.453c.44.33.53.96.21 1.4-.2.27-.5.4-.81.4a.995.995 0 01-.8-1.59.996.996 0 011.4-.21zm-6.29-4.78a.986.986 0 01-.58.19c-.32 0-.62-.15-.819-.42-.32-.45-.22-1.07.23-1.4.45-.32 1.08-.21 1.4.23.32.45.219 1.08-.23 1.4zm2.03.87c.37.41.33 1.04-.08 1.41a.99.99 0 01-.66.25.963.963 0 01-.75-.341.997.997 0 01.08-1.41c.421-.36 1.051-.33 1.41.09zm2.03 2.071c.411.37.43 1 .06 1.41a1.008 1.008 0 01-1.41.06 1 1 0 01-.06-1.42 1.005 1.005 0 011.411-.06v.01zm-5.769-5.412c-.15.09-.33.13-.49.13a.997.997 0 11.86-1.49h.01a1 1 0 01-.38 1.36zm52.69-14.122c.02-.55.49-.981 1.04-.96.55.019.98.479.96 1.04-.02.53-.46.96-1 .96h-.04c-.551-.02-.98-.49-.96-1.04zm-56.83 2.91c-.5 0-.94-.38-.99-.9a.99.99 0 01.89-1.09 1.001 1.001 0 01.21 1.991c-.04 0-.07 0-.11-.002zm.46 2.96c-.46 0-.88-.32-.97-.79a.989.989 0 01.77-1.18.988.988 0 011.18.77.988.988 0 01-.77 1.18c-.07.02-.141.02-.21.02zm2.24 5.62a.953.953 0 01-.4.092c-.39 0-.75-.231-.92-.601-.22-.51.01-1.1.51-1.32.51-.22 1.1.01 1.32.51.219.51-.011 1.1-.51 1.32zm-1.161-2.759c-.1.03-.21.04-.31.04-.42 0-.81-.269-.95-.689a1 1 0 01.65-1.26.988.988 0 011.25.65 1.005 1.005 0 01-.64 1.26zm27.75 19.203a.99.99 0 01-.999.98h-.02a.998.998 0 01-.98-1.02c.01-.55.47-.99 1.02-.98.55.01.989.47.98 1.02zm23.09-12.051c.44.339.52.969.18 1.399-.199.26-.5.39-.79.39-.22 0-.429-.07-.619-.21a1 1 0 01-.17-1.4.993.993 0 011.4-.18zm-6.31 6.38c.32.452.2 1.08-.25 1.39a1 1 0 01-.57.17c-.32 0-.63-.15-.82-.43a.996.996 0 111.64-1.13zm2.32-1.91a1 1 0 11-1.52 1.3 1 1 0 111.52-1.3zm5.94-5.613a.99.99 0 01-.85.471c-.18 0-.36-.049-.53-.15-.47-.29-.61-.91-.32-1.38.29-.46.91-.61 1.38-.32a1 1 0 01.32 1.38zm-3.829 3.482c.4.38.41 1.01.03 1.41a.97.97 0 01-.72.31.97.97 0 01-.69-.279.987.987 0 01-.03-1.41.996.996 0 011.41-.031zm8.049-15.06a1 1 0 01-.99.859c-.04 0-.09 0-.14-.01a.995.995 0 01-.85-1.13c.08-.54.59-.93 1.13-.852a1 1 0 01.85 1.132zm-.6 3.048a1.003 1.003 0 01-1.209.73c-.53-.14-.86-.68-.73-1.22.14-.53.68-.86 1.22-.73.529.14.86.68.72 1.22zm-43.06 18.145c-.19.32-.52.49-.86.49a.995.995 0 01-.85-1.51.996.996 0 111.71 1.02zm42.15-15.183a.988.988 0 01-1.28.6.992.992 0 01-.59-1.28.995.995 0 111.87.68zm-1.21 2.86a1.004 1.004 0 01-1.34.46c-.49-.24-.7-.84-.46-1.34.241-.5.851-.7 1.341-.46a1 1 0 01.46 1.34zm-29.539 15.791a.995.995 0 01-.99.882h-.12v-.011a.986.986 0 01-.87-1.11.992.992 0 011.11-.87c.549.07.94.56.87 1.11zm-5.88-1.129c-.14.41-.53.67-.94.67-.11 0-.22-.02-.33-.05-.52-.18-.8-.75-.62-1.27a.993.993 0 011.27-.62c.52.17.8.74.62 1.27zm2.91.72c-.1.46-.52.77-.97.77-.08 0-.15 0-.23-.02-.53-.12-.87-.66-.75-1.2.13-.54.66-.87 1.2-.75.54.12.879.66.75 1.2zm-5.73-1.75c-.17.37-.53.58-.91.58-.14 0-.28-.03-.42-.09-.5-.23-.71-.831-.48-1.331a.99.99 0 011.33-.48c.5.23.71.821.48 1.321zm17.65 1.57c.1.54-.26 1.061-.8 1.17-.06.011-.12.011-.18.011-.47 0-.9-.33-.99-.81-.1-.54.26-1.07.8-1.17a1 1 0 011.17.8zm2.89-.82c.16.53-.14 1.09-.67 1.25a1.005 1.005 0 01-1.25-.671.987.987 0 01.67-1.239c.53-.16 1.089.14 1.25.66zm2.79-1.1c.21.51-.03 1.09-.54 1.311-.13.05-.26.07-.39.07a.997.997 0 01-.92-.61c-.21-.51.03-1.101.54-1.311.51-.21 1.089.03 1.31.54zm-8.641 2.43a.983.983 0 01-.91 1.07v.01h-.08c-.52 0-.96-.4-1-.92a.998.998 0 01.91-1.08c.551-.04 1.04.37 1.08.92zm11.29-3.82c.27.48.09 1.09-.4 1.35-.15.09-.31.13-.47.13-.36 0-.7-.189-.88-.529a.985.985 0 01.4-1.351.983.983 0 011.35.4z"
    />
    </defs>
    <use fill="#ff9000" xlink:href="#bra" transform="translate(-1438 -990)" />
    <use fill="#dadfe5" xlink:href="#brb" transform="translate(-1438 -990)" />
  </svg>
