<svg xmlns="http://www.w3.org/2000/svg" xmlns:xlink="http://www.w3.org/1999/xlink" width="572" height="82"><defs><path id="a" d="M867.065 861l-2.384-2.375 3.78-3.767h-19.755c-5.897 0-10.699-4.78-10.704-10.656l-.002-65.2 3.371-.002.003 65.2c.004 4.024 3.293 7.298 7.332 7.298h19.924l-3.95-3.935 2.385-2.375 7.935 7.906zm298 0l-2.384-2.375 3.78-3.767h-31.755c-5.897 0-10.699-4.78-10.704-10.656l-.002-65.2 3.371-.002.003 65.2c.004 4.024 3.293 7.298 7.332 7.298h31.924l-3.95-3.935 2.385-2.375 7.935 7.906zM1117 789.935l-2.375 2.384-3.767-3.78v55.754c0 5.898-4.78 10.7-10.656 10.704l-55.2.003-.002-3.372 55.2-.002c4.024-.004 7.298-3.293 7.298-7.333V788.37l-3.935 3.95-2.375-2.384 7.906-7.935zm293 0l-2.375 2.384-3.767-3.78v55.754c0 5.898-4.78 10.7-10.656 10.704l-37.2.003-.002-3.372 37.2-.002c4.024-.004 7.298-3.293 7.298-7.333V788.37l-3.935 3.95-2.375-2.384 7.906-7.935z"/></defs><use fill="#fff" xlink:href="#a" transform="translate(-838 -779)"/></svg>