<svg xmlns="http://www.w3.org/2000/svg" xmlns:xlink="http://www.w3.org/1999/xlink" width="172" height="410"><defs><path id="a" d="M143.065 1112l-2.384-2.375 3.78-3.767h-19.755c-5.897 0-10.699-4.78-10.704-10.656l-.002-65.2 3.371-.002.003 65.199c.004 4.025 3.293 7.3 7.332 7.3h19.924l-3.95-3.936 2.385-2.375 7.935 7.906zM249 1212.094l7.935-7.906 2.384 2.375-3.95 3.935h19.925c4.04 0 7.328-3.274 7.332-7.3l.003-65.198 3.371.002-.002 65.2c-.005 5.875-4.807 10.656-10.704 10.656h-19.756l3.781 3.767-2.384 2.375zM143.065 1332l-2.384-2.375 3.78-3.767h-19.755c-5.897 0-10.699-4.78-10.704-10.656l-.002-65.2 3.371-.002.003 65.2c.004 4.024 3.293 7.298 7.332 7.298h19.924l-3.95-3.935 2.385-2.375 7.935 7.906zM249 1432.094l7.935-7.906 2.384 2.375-3.95 3.935h19.925c4.04 0 7.328-3.274 7.332-7.299l.003-65.2 3.371.003-.002 65.2c-.005 5.875-4.807 10.656-10.704 10.656h-19.756l3.781 3.767-2.384 2.375z"/></defs><use fill="#fff" xlink:href="#a" transform="translate(-114 -1030)"/></svg>