<svg
  viewBox="0 0 71 74"
  id="image-worker"
  xmlns="http://www.w3.org/2000/svg"
  xmlns:xlink="http://www.w3.org/1999/xlink"
>
<defs>
  <path
      id="cta"
      d="M503.55 1289.9h-1.9a.951.951 0 00-1.9 0h-1.9a2.854 2.854 0 012.85-2.85 2.854 2.854 0 012.85 2.85zm7.6 0h-1.9a.951.951 0 00-1.9 0h-1.9a2.853 2.853 0 012.85-2.85 2.853 2.853 0 012.85 2.85zm-2.85 26.6c0 2.096-1.704 3.8-3.8 3.8a3.804 3.804 0 01-3.8-3.8c0-2.096 1.704-3.8 3.8-3.8s3.8 1.704 3.8 3.8zm-1.9 0c0-1.048-.852-1.9-1.9-1.9s-1.9.852-1.9 1.9.852 1.9 1.9 1.9 1.9-.852 1.9-1.9zm26.6 7.6v1.9h-57v-1.9h5.7v-12.35c0-7.857 6.392-14.25 14.25-14.25h1.035a11.38 11.38 0 01-3.713-6.65h-.647a4.28 4.28 0 01-4.275-4.275 4.27 4.27 0 011.911-3.558c.127-7.749 6.46-14.017 14.239-14.017 7.78 0 14.112 6.268 14.239 14.017a4.272 4.272 0 011.911 3.558 4.272 4.272 0 01-1.9 3.551v1.674c0 2.62-2.13 4.75-4.75 4.75h-1.027c-.301.335-.62.653-.958.95h1.035c7.857 0 14.25 6.393 14.25 14.25v12.35zm-16.15-33.298c-.158.018-.313.048-.475.048h-.647a11.298 11.298 0 01-1.347 3.761 2.844 2.844 0 002.469-2.811zm-.475-6.602h-.475v4.75h.475a2.378 2.378 0 002.375-2.375 2.378 2.378 0 00-2.375-2.375zm-23.275 0h-.475a2.378 2.378 0 00-2.375 2.375 2.378 2.378 0 002.375 2.375h.475zm.172-1.9c.908-5.383 5.59-9.5 11.228-9.5 5.637 0 10.32 4.117 11.228 9.5h.647c.147 0 .286.028.43.044-.468-6.387-5.801-11.444-12.305-11.444s-11.837 5.057-12.304 11.444c.143-.016.282-.044.429-.044zm11.228-7.6c-4.896 0-8.939 3.725-9.445 8.49 3.19-.349 5.645-2.316 5.645-4.69a.95.95 0 111.9 0c0 2.631 4.543 5.435 11.399 5.676-.013-5.227-4.27-9.476-9.499-9.476zm-3.917 22.895a9.452 9.452 0 009.592-1.045H504.5v-1.9h7.582a9.44 9.44 0 001.918-5.7v-2.87c-5.627-.188-10.271-2.042-12.259-4.675-1.257 2.004-3.774 3.434-6.741 3.692v3.853c0 3.842 2.296 7.15 5.583 8.645zm3.917 8.23l2.936-5.872c-.938.25-1.92.397-2.936.397a11.35 11.35 0 01-2.936-.397zm-5.337-6.425h-1.676l3.8 7.6h1.676zm6.874 7.6h1.676l3.8-7.6h-1.676zm-14.837 0h7.963l-3.786-7.57c-6.543.302-11.777 5.703-11.777 12.32v12.35h2.85v-12.35c0-2.62 2.13-4.75 4.75-4.75zm29.45 4.75a2.854 2.854 0 00-2.85-2.85h-26.6a2.853 2.853 0 00-2.85 2.85v12.35h32.3zm4.75 0c0-6.617-5.235-12.018-11.777-12.32l-3.786 7.57h7.963c2.619 0 4.75 2.13 4.75 4.75v12.35h2.85zm-8.55 3.8h1.9v6.65h-1.9zm0-3.8h1.9v1.9h-1.9z"
    />
  <path
      id="ctb"
      d="M525.4 1277.55h1.9v1.9h-1.9zm0 3.8h1.9v1.9h-1.9zm0 3.8h1.9v1.9h-1.9zm-43.7 3.8h1.9v1.9h-1.9zm0 3.8h1.9v1.9h-1.9zm0 3.8h1.9v1.9h-1.9zm3.043-44.55a5.266 5.266 0 015.256 5.263v12.494a5.266 5.266 0 01-5.256 5.263h-3.138l-.043 2.953a1.043 1.043 0 01-1.479.93l-8.36-3.883h-4.467a5.266 5.266 0 01-5.256-5.263v-12.494a5.266 5.266 0 015.256-5.264zm3.175 5.263a3.18 3.18 0 00-3.175-3.179h-17.487a3.18 3.18 0 00-3.174 3.179v12.494a3.18 3.18 0 003.174 3.179h4.696c.151 0 .3.033.438.097l7.114 3.303.035-2.373a1.042 1.042 0 011.04-1.027h4.164a3.18 3.18 0 003.175-3.18zM469 1258h14a1 1 0 010 2h-14a1 1 0 010-2zm0 4h14a1 1 0 010 2h-14a1 1 0 010-2zm0 4h14a1 1 0 010 2h-14a1 1 0 010-2z"
    />
</defs>
  <use fill="#dbe0e6" xlink:href="#cta" transform="translate(-462 -1252)" />
  <use fill="#ff9000" xlink:href="#ctb" transform="translate(-462 -1252)" />
</svg>
